<svg xmlns="http://www.w3.org/2000/svg" viewBox="0 0 32 32" fill="none">
  <circle cx="16" cy="16" r="14" fill="#3b82f6"/>
  <path d="M16 2C8.268 2 2 8.268 2 16s6.268 14 14 14 14-6.268 14-14S23.732 2 16 2zm0 2c6.627 0 12 5.373 12 12s-5.373 12-12 12S4 22.627 4 16 9.373 4 16 4zm0 2c-5.523 0-10 4.477-10 10s4.477 10 10 10 10-4.477 10-10S21.523 6 16 6zm0 2c4.418 0 8 3.582 8 8s-3.582 8-8 8-8-3.582-8-8 3.582-8 8-8zm0 2c-3.314 0-6 2.686-6 6s2.686 6 6 6 6-2.686 6-6-2.686-6-6-6zm0 2c2.209 0 4 1.791 4 4s-1.791 4-4 4-4-1.791-4-4 1.791-4 4-4z" fill="white"/>
  <path d="M16 8c-4.418 0-8 3.582-8 8 0 2.209.896 4.209 2.344 5.656l1.414-1.414C10.896 18.68 10 17.209 10 16c0-3.314 2.686-6 6-6 1.209 0 2.68.896 3.656 2.344l1.414-1.414C20.209 8.896 18.209 8 16 8zm0 4c-2.209 0-4 1.791-4 4 0 .737.201 1.426.55 2.019l1.414-1.414C13.348 16.426 13.179 16.234 13.179 16c0-1.654 1.346-3 3-3 .234 0 .426.169.605.386l1.414-1.414C17.426 11.201 16.737 11 16 11z" fill="white" opacity="0.8"/>
</svg>
